HIERARCHY
ROOT Hips
{
	OFFSET 0.000000 89.005402 0.000000
	CHANNELS 6 Xposition Yposition Zposition Xrotation Yrotation Zrotation
	JOINT Spine
	{
		OFFSET 0.116900 10.681000 0.373400
		CHANNELS 3 Xrotation Yrotation Zrotation
		JOINT Spine1
		{
			OFFSET 0.000000 13.840401 0.053500
			CHANNELS 3 Xrotation Yrotation Zrotation
			JOINT Spine2
			{
				OFFSET 0.000000 14.712700 -0.366200
				CHANNELS 3 Xrotation Yrotation Zrotation
				JOINT Neck
				{
					OFFSET 0.000000 35.415497 -3.314200
					CHANNELS 3 Xrotation Yrotation Zrotation
					JOINT Head
					{
						OFFSET 0.000000 16.899200 1.218300
						CHANNELS 3 Xrotation Yrotation Zrotation
						JOINT HeadTop_End
						{
							OFFSET 0.000000 22.206207 2.192500
							CHANNELS 3 Xrotation Yrotation Zrotation
							End Site
							{
								OFFSET 0.000000 22.314178 0.000000
							}
						}
					}
				}
				JOINT LeftShoulder
				{
					OFFSET 12.896400 26.716293 -4.548400
					CHANNELS 3 Xrotation Yrotation Zrotation
					JOINT LeftArm
					{
						OFFSET 19.027000 -4.857010 -1.718400
						CHANNELS 3 Xrotation Yrotation Zrotation
						JOINT LeftForeArm
						{
							OFFSET 24.179897 0.000000 0.000000
							CHANNELS 3 Xrotation Yrotation Zrotation
							JOINT LeftHand
							{
								OFFSET 27.156403 0.000000 0.000000
								CHANNELS 3 Xrotation Yrotation Zrotation
								JOINT LeftHandIndex1
								{
									OFFSET 16.441200 0.000000 0.000000
									CHANNELS 3 Xrotation Yrotation Zrotation
									JOINT LeftHandIndex2
									{
										OFFSET 4.821899 0.000000 0.000000
										CHANNELS 3 Xrotation Yrotation Zrotation
										JOINT LeftHandIndex3
										{
											OFFSET 6.386497 0.000000 0.000000
											CHANNELS 3 Xrotation Yrotation Zrotation
											JOINT LeftHandIndex4
											{
												OFFSET 5.188988 0.000000 0.000000
												CHANNELS 3 Xrotation Yrotation Zrotation
												End Site
												{
													OFFSET -0.178703 5.185913 0.000177
												}
											}
										}
									}
								}
								JOINT LeftHandThumb1
								{
									OFFSET 6.534897 -5.032593 5.900300
									CHANNELS 3 Xrotation Yrotation Zrotation
									JOINT LeftHandThumb2
									{
										OFFSET 3.818176 -2.204422 2.204423
										CHANNELS 3 Xrotation Yrotation Zrotation
										JOINT LeftHandThumb3
										{
											OFFSET 3.252098 -1.877594 1.877601
											CHANNELS 3 Xrotation Yrotation Zrotation
											JOINT LeftHandThumb4
											{
												OFFSET 5.251778 -3.032120 3.032117
												CHANNELS 3 Xrotation Yrotation Zrotation
												End Site
												{
													OFFSET 0.000023 6.780014 0.000000
												}
											}
										}
									}
								}
							}
						}
					}
				}
				JOINT RightShoulder
				{
					OFFSET -12.896300 26.716293 -4.548400
					CHANNELS 3 Xrotation Yrotation Zrotation
					JOINT RightArm
					{
						OFFSET -19.027000 -4.857010 -1.718400
						CHANNELS 3 Xrotation Yrotation Zrotation
						JOINT RightForeArm
						{
							OFFSET -24.179897 0.000000 0.000000
							CHANNELS 3 Xrotation Yrotation Zrotation
							JOINT RightHand
							{
								OFFSET -27.156403 0.000000 0.000000
								CHANNELS 3 Xrotation Yrotation Zrotation
								JOINT RightHandThumb1
								{
									OFFSET -6.591202 -4.852203 5.988100
									CHANNELS 3 Xrotation Yrotation Zrotation
									JOINT RightHandThumb2
									{
										OFFSET -3.818176 -2.204422 2.204423
										CHANNELS 3 Xrotation Yrotation Zrotation
										JOINT RightHandThumb3
										{
											OFFSET -3.252098 -1.877594 1.877601
											CHANNELS 3 Xrotation Yrotation Zrotation
											JOINT RightHandThumb4
											{
												OFFSET -5.251778 -3.032120 3.032117
												CHANNELS 3 Xrotation Yrotation Zrotation
												End Site
												{
													OFFSET -0.000023 6.780014 0.000000
												}
											}
										}
									}
								}
								JOINT RightHandIndex1
								{
									OFFSET -16.029404 0.000000 0.000000
									CHANNELS 3 Xrotation Yrotation Zrotation
									JOINT RightHandIndex2
									{
										OFFSET -5.213303 0.000000 0.000000
										CHANNELS 3 Xrotation Yrotation Zrotation
										JOINT RightHandIndex3
										{
											OFFSET -6.386528 0.000000 0.000000
											CHANNELS 3 Xrotation Yrotation Zrotation
											JOINT RightHandIndex4
											{
												OFFSET -5.189026 0.000000 0.000000
												CHANNELS 3 Xrotation Yrotation Zrotation
												End Site
												{
													OFFSET 0.236702 5.183624 0.001972
												}
											}
										}
									}
								}
							}
						}
					}
				}
			}
		}
	}
	JOINT LeftUpLeg
	{
		OFFSET 14.073000 -7.904099 -1.463000
		CHANNELS 3 Xrotation Yrotation Zrotation
		JOINT LeftLeg
		{
			OFFSET -0.109806 -34.073280 4.093200
			CHANNELS 3 Xrotation Yrotation Zrotation
			JOINT LeftFoot
			{
				OFFSET 0.109806 -29.899420 -6.319000
				CHANNELS 3 Xrotation Yrotation Zrotation
				JOINT LeftToeBase
				{
					OFFSET 1.551100 -14.988700 20.535801
					CHANNELS 3 Xrotation Yrotation Zrotation
					JOINT LeftToe_End
					{
						OFFSET 0.221200 0.570800 13.248301
						CHANNELS 3 Xrotation Yrotation Zrotation
						End Site
						{
							OFFSET 0.000000 13.262435 0.000000
						}
					}
				}
			}
		}
	}
	JOINT RightUpLeg
	{
		OFFSET -13.839300 -7.904099 -1.463000
		CHANNELS 3 Xrotation Yrotation Zrotation
		JOINT RightLeg
		{
			OFFSET 0.109694 -34.073219 4.093300
			CHANNELS 3 Xrotation Yrotation Zrotation
			JOINT RightFoot
			{
				OFFSET -0.109694 -29.899384 -6.319200
				CHANNELS 3 Xrotation Yrotation Zrotation
				JOINT RightToeBase
				{
					OFFSET -1.551100 -14.988700 20.535801
					CHANNELS 3 Xrotation Yrotation Zrotation
					JOINT RightToe_End
					{
						OFFSET -0.221200 0.570900 13.248299
						CHANNELS 3 Xrotation Yrotation Zrotation
						End Site
						{
							OFFSET 0.000000 13.262440 0.000000
						}
					}
				}
			}
		}
	}
}
MOTION
Frames: 8
Frame Time: 0.033333
-0.393945 73.673859 -1.670028 -7.941563 -51.133637 -1.870873 9.153541 3.734070 -1.767152 7.734220 0.794678 -2.836210 7.738756 0.795298 -2.813796 2.148588 8.340848 2.721914 0.038114 28.480695 -3.610858 -0.000001 -0.000000 0.000001 -0.025352 -0.591660 -2.888151 -37.724634 10.165133 -53.850608 -0.000007 -112.928360 -0.000002 -0.492483 -6.649100 -10.471363 0.255310 3.378218 -45.814331 5.654093 5.847758 -88.067448 2.162139 4.544816 -50.866369 0.000001 -0.000000 0.000005 -6.141213 -11.690806 -6.761684 9.914123 42.595529 3.409865 -0.422815 8.108093 27.509108 -0.000000 -0.000001 -0.000001 6.885111 18.627239 -0.965097 -51.243002 32.563313 69.051601 0.000163 107.654156 -0.000157 -16.495856 17.561366 11.697848 -7.341088 13.749662 7.412317 9.855759 -44.489096 -3.903261 -0.115769 -14.513086 -28.973867 -0.000000 0.000000 0.000002 -0.124374 -2.384781 45.108854 4.500586 -4.654539 88.071164 1.723222 -3.618378 50.920112 0.000001 -0.000001 -0.000001 -25.861809 8.537087 20.390949 52.438436 -4.467356 4.337003 -22.672384 -6.403935 -19.724386 -1.573537 0.000003 -0.000002 -0.000000 -0.000000 0.000000 -20.934912 -10.347897 -31.219910 57.859093 -1.498936 -6.215139 -28.810493 -7.918826 21.186111 -0.012998 0.000001 -0.000001 0.000000 -0.000000 -0.000000 
-0.396352 73.413399 -1.263737 -7.521723 -50.385564 -1.563278 9.098811 4.342621 -1.759545 6.805340 0.877181 -2.553307 6.811007 0.876094 -2.526517 1.827614 9.120438 2.946415 1.537790 27.322657 -3.781767 0.000001 0.000000 0.000000 0.097448 0.063211 -3.733348 -40.391498 9.498403 -53.190040 0.000061 -112.183248 0.000066 -0.225792 -6.748092 -11.293457 0.255309 3.378219 -45.814331 5.654090 5.847760 -88.067448 2.162138 4.544817 -50.866372 -0.000003 -0.000001 0.000001 -6.141216 -11.690803 -6.761682 9.914118 42.595529 3.409858 -0.422821 8.108090 27.509113 -0.000000 0.000001 -0.000000 6.349930 17.748226 -1.649736 -50.872731 31.719344 71.403426 -0.000049 107.445918 0.000039 -15.228597 17.554602 11.236398 -7.341089 13.749655 7.412321 9.855753 -44.489100 -3.903258 -0.115768 -14.513088 -28.973871 0.000001 -0.000004 0.000001 -0.124373 -2.384783 45.108857 4.500584 -4.654537 88.071171 1.723223 -3.618381 50.920116 -0.000000 -0.000000 0.000001 -26.667237 8.222294 20.233688 53.588824 -4.973140 4.223614 -23.271378 -6.474400 -19.141359 -1.571478 -0.000017 0.000000 -0.000000 -0.000000 -0.000000 -20.526616 -10.499545 -31.492404 57.896686 -2.114590 -6.370845 -29.012127 -8.153269 22.151781 -0.012998 0.000001 -0.000001 -0.000000 -0.000000 0.000000 
-0.397956 73.149017 -0.902803 -7.097305 -49.646118 -1.259385 9.067077 4.933012 -1.747674 5.897008 0.949104 -2.264879 5.903991 0.946354 -2.233880 1.508271 9.890225 3.184391 2.989959 26.131756 -3.926143 -0.000001 -0.000000 0.000001 0.238390 0.709882 -4.575733 -42.985707 8.755239 -52.624518 -0.000016 -111.365708 -0.000019 0.060145 -6.836904 -12.126047 0.255313 3.378218 -45.814331 5.654091 5.847758 -88.067448 2.162138 4.544815 -50.866376 0.000000 -0.000001 0.000000 -6.141210 -11.690805 -6.761685 9.914113 42.595532 3.409859 -0.422817 8.108088 27.509115 -0.000001 -0.000001 0.000001 5.796931 16.884941 -2.336724 -50.466898 30.877219 73.695795 0.000156 107.222707 -0.000155 -13.958082 17.540563 10.784105 -7.341088 13.749657 7.412320 9.855750 -44.489096 -3.903266 -0.115768 -14.513092 -28.973867 -0.000001 0.000000 0.000001 -0.124374 -2.384786 45.108854 4.500583 -4.654539 88.071164 1.723222 -3.618380 50.920116 -0.000000 0.000000 0.000001 -27.499945 7.911102 20.097871 54.693600 -5.488970 4.124975 -23.805282 -6.548544 -18.584422 -1.571801 -0.000008 0.000005 -0.000000 -0.000004 -0.000000 -20.163429 -10.648177 -31.709918 57.990464 -2.613441 -6.509115 -29.229204 -8.493547 22.995787 -0.012998 0.000002 -0.000002 -0.000000 0.000001 -0.000000 
-0.398691 72.884720 -0.582085 -6.691595 -48.917108 -0.977715 9.056639 5.496834 -1.733722 5.019580 1.008872 -1.977415 5.028006 1.004574 -1.942342 1.193017 10.641858 3.430820 4.387480 24.928450 -4.052257 -0.000000 -0.000000 0.000000 0.395201 1.340691 -5.411898 -45.479330 7.978523 -52.149369 0.000058 -110.505111 0.000073 0.362696 -6.941836 -12.946406 0.255310 3.378219 -45.814327 5.654094 5.847759 -88.067448 2.162138 4.544815 -50.866369 -0.000001 0.000000 -0.000003 -6.141214 -11.690803 -6.761685 9.914118 42.595532 3.409861 -0.422817 8.108092 27.509118 -0.000001 0.000002 -0.000002 5.233136 16.045704 -3.015342 -50.033601 30.049988 75.904889 0.000112 106.992373 -0.000115 -12.716083 17.521641 10.346564 -7.341089 13.749658 7.412319 9.855753 -44.489103 -3.903258 -0.115766 -14.513088 -28.973871 -0.000003 0.000003 -0.000001 -0.124374 -2.384784 45.108854 4.500586 -4.654540 88.071164 1.723225 -3.618381 50.920116 -0.000000 0.000001 0.000003 -28.338383 7.607757 19.981367 55.751467 -6.011477 4.040083 -24.278295 -6.626320 -18.051010 -1.576142 -0.000001 -0.000002 -0.000000 0.000001 -0.000000 -19.822812 -10.791771 -31.892168 58.115546 -3.117256 -6.628863 -29.448012 -8.822953 23.797617 -0.012998 -0.000000 -0.000001 0.000000 -0.000000 0.000000 
-0.398705 72.623055 -0.300409 -6.327576 -48.198739 -0.737433 9.069212 6.022484 -1.719816 4.185600 1.052360 -1.690711 4.195791 1.046064 -1.666956 0.884913 11.366244 3.681960 5.720455 23.730965 -4.167207 0.000001 0.000000 -0.000001 0.565179 1.946949 -6.240653 -47.838997 7.212339 -51.755338 0.000113 -109.624331 0.000099 0.683885 -7.095161 -13.738429 0.255309 3.378216 -45.814331 5.654094 5.847758 -88.067448 2.162137 4.544817 -50.866376 0.000001 -0.000000 0.000003 -6.141216 -11.690804 -6.761681 9.914119 42.595529 3.409865 -0.422821 8.108092 27.509109 -0.000000 -0.000002 0.000001 4.666185 15.237035 -3.672709 -49.591220 29.251354 78.008274 -0.000045 106.761266 0.000053 -11.527356 17.504445 9.926377 -7.341087 13.749656 7.412322 9.855749 -44.489103 -3.903260 -0.115766 -14.513090 -28.973867 0.000001 -0.000001 -0.000001 -0.124372 -2.384785 45.108854 4.500586 -4.654540 88.071164 1.723225 -3.618379 50.920119 0.000000 -0.000000 -0.000001 -29.165857 7.314196 19.886690 56.762977 -6.541040 3.969552 -24.690630 -6.707356 -17.540622 -1.587291 -0.000011 0.000007 0.000000 0.000001 0.000000 -19.487083 -10.936596 -32.039434 58.265728 -3.620960 -6.730936 -29.668378 -9.140420 24.555923 -0.012998 0.000001 -0.000002 -0.000000 -0.000001 -0.000000 
-0.396064 72.350754 -0.146369 -5.993741 -47.494707 -0.545205 9.157244 6.464120 -1.689146 3.440668 1.052022 -1.412002 3.452546 1.045167 -1.395701 0.597934 12.035228 3.961541 6.912435 22.503107 -4.209972 0.000000 -0.000000 0.000001 0.745303 2.521414 -7.066386 -49.939509 6.438958 -51.539566 0.000105 -108.583813 0.000108 1.090997 -7.288338 -14.495318 0.255308 3.378217 -45.814331 5.654094 5.847759 -88.067448 2.162141 4.544816 -50.866376 0.000000 -0.000000 -0.000000 -6.141215 -11.690800 -6.761686 9.914121 42.595529 3.409861 -0.422816 8.108090 27.509113 -0.000000 0.000002 -0.000001 4.101757 14.451876 -4.280711 -49.250090 28.505890 79.983455 0.000159 106.501746 -0.000164 -10.392681 17.515197 9.514055 -7.341088 13.749657 7.412319 9.855753 -44.489103 -3.903261 -0.115768 -14.513092 -28.973874 -0.000003 -0.000002 0.000002 -0.124374 -2.384784 45.108854 4.500585 -4.654540 88.071164 1.723223 -3.618380 50.920119 -0.000000 -0.000002 0.000001 -30.060813 7.004388 19.875808 57.705017 -7.100815 3.945769 -24.966266 -6.780752 -17.114765 -1.593828 -0.000003 -0.000015 -0.000000 -0.000002 -0.000000 -19.245991 -11.036451 -32.091616 58.581433 -4.160460 -6.770323 -29.947982 -9.423278 25.193428 -0.012998 0.000001 -0.000001 -0.000000 -0.000000 -0.000000 
-0.390611 72.075089 -0.106867 -5.681386 -46.827770 -0.382816 9.308265 6.831542 -1.650588 2.787056 1.019872 -1.154236 2.800566 1.012852 -1.135240 0.333513 12.651667 4.260824 7.957642 21.280674 -4.170635 -0.000000 -0.000000 0.000000 0.931397 3.056730 -7.875191 -51.788256 5.659202 -51.497400 -0.000098 -107.431485 -0.000091 1.555613 -7.489900 -15.220274 0.255308 3.378217 -45.814327 5.654093 5.847760 -88.067448 2.162137 4.544817 -50.866376 0.000000 -0.000001 0.000000 -6.141215 -11.690806 -6.761680 9.914113 42.595532 3.409865 -0.422820 8.108089 27.509115 0.000001 -0.000003 0.000001 3.553474 13.706324 -4.843099 -48.990502 27.810416 81.800989 0.000010 106.234809 -0.000009 -9.328372 17.536328 9.128841 -7.341087 13.749658 7.412317 9.855750 -44.489096 -3.903260 -0.115768 -14.513090 -28.973871 -0.000000 0.000002 0.000001 -0.124374 -2.384784 45.108854 4.500589 -4.654536 88.071164 1.723224 -3.618380 50.920116 0.000001 -0.000002 0.000002 -30.997072 6.685536 19.926896 58.560410 -7.669979 3.957993 -25.117630 -6.844217 -16.770396 -1.593806 0.000005 -0.000002 -0.000000 0.000000 -0.000000 -19.109512 -11.076781 -32.067615 59.044445 -4.714021 -6.752889 -30.273697 -9.674391 25.712577 -0.012998 0.000001 -0.000001 -0.000000 0.000000 0.000000 
-0.384552 71.819824 -0.075035 -5.398678 -46.211984 -0.238050 9.452225 7.171212 -1.616267 2.187715 0.989898 -0.915630 2.202828 0.982778 -0.894153 0.084653 13.220558 4.538676 8.920924 20.138140 -4.130233 0.000001 0.000000 -0.000001 1.117178 3.546346 -8.633310 -53.487013 4.935502 -51.502987 0.000052 -106.358073 0.000058 1.988603 -7.706148 -15.869256 0.255308 3.378218 -45.814331 5.654095 5.847761 -88.067448 2.162138 4.544814 -50.866376 -0.000001 0.000001 -0.000001 -6.141215 -11.690802 -6.761690 9.914113 42.595532 3.409851 -0.422819 8.108089 27.509116 -0.000000 -0.000002 0.000003 3.036128 13.027202 -5.371409 -48.713732 27.172834 83.457084 0.000170 105.988280 -0.000169 -8.345368 17.548100 8.775695 -7.341089 13.749660 7.412318 9.855750 -44.489096 -3.903262 -0.115770 -14.513088 -28.973871 -0.000000 0.000001 0.000001 -0.124373 -2.384783 45.108854 4.500587 -4.654538 88.071171 1.723223 -3.618377 50.920112 0.000001 -0.000001 0.000000 -31.861425 6.395797 19.963982 59.337617 -8.188281 3.970972 -25.244837 -6.905744 -16.448605 -1.594038 -0.000009 0.000001 -0.000000 -0.000000 -0.000000 -18.986205 -11.114473 -32.040858 59.475006 -5.224232 -6.737390 -30.568822 -9.909671 26.194325 -0.012998 0.000001 -0.000001 -0.000000 0.000000 -0.000000 
